<?xml version="1.0" encoding="utf-8"?>
<!-- Generator: Adobe Illustrator 12.0.0, SVG Export Plug-In  -->
<!DOCTYPE svg PUBLIC "-//W3C//DTD SVG 1.1//EN" "http://www.w3.org/Graphics/SVG/1.1/DTD/svg11.dtd" [
	<!ENTITY ns_flows "http://ns.adobe.com/Flows/1.0/">
	<!ENTITY ns_svg "http://www.w3.org/2000/svg">
	<!ENTITY ns_xlink "http://www.w3.org/1999/xlink">
]>
<svg  version="1.1" xmlns="&ns_svg;" xmlns:xlink="&ns_xlink;" xmlns:a="http://ns.adobe.com/AdobeSVGViewerExtensions/3.0/"
	 width="506" height="789" viewBox="0 -0.933 506 789" enable-background="new 0 -0.933 506 789" xml:space="preserve">
<defs>
</defs>
<path fill-rule="evenodd" clip-rule="evenodd" d="M244.451,0c5.708,0,11.431,0,17.14,0c33.092,1.609,62.938,8.422,88.7,19.122
	c24.817,10.304,47.136,24.287,66.283,40.56c38.442,32.709,68.563,76.179,82.087,131.886c7.28,29.935,9.46,65.85,4.951,96.615
	c-4.556,31.196-14.092,57.501-26.056,81.119c-23.952,47.297-61.032,81.827-106.831,107.166
	c-37.601,105.718-76.092,210.542-118.362,311.601c-37.575-103.339-75.497-206.328-113.098-309.619
	c-23.94-12.087-45.018-27.222-63.31-45.501C40.04,397.031,12.198,352.78,2.749,290.819c-4.805-31.531-3.269-67.162,4.285-97.591
	c14.082-56.723,42.951-99.871,82.111-133.211C128.108,26.825,177.436,3.789,244.451,0z M250.383,20.447
	c-64.078,1.832-110.782,23.084-147.391,54.728c-36.276,31.346-64.86,71.423-77.157,125.297c-6.602,28.894-7.344,63.732-2.304,92.33
	c4.966,28.261,15.011,53.675,26.702,74.518c24.324,43.385,60.747,74.766,105.519,96.936
	c32.461,89.318,64.871,178.713,97.926,267.413c35.408-88.131,68.302-178.764,100.898-269.717
	c44.362-22.515,79.089-54.345,102.868-97.593c11.617-21.091,20.73-46.244,25.39-74.854c4.682-28.608,3.517-62.579-3.294-91.337
	c-12.437-52.598-40.624-92.625-76.811-123.65C367.68,44.473,318.14,21.66,255.659,20.447
	C254.656,19.89,251.386,19.89,250.383,20.447z"/>
<path fill-rule="evenodd" clip-rule="evenodd" fill="#0060FF" d="M250.383,20.447c1.003-0.558,4.273-0.558,5.276,0
	C253.898,20.447,252.141,20.447,250.383,20.447z"/>
<path fill-rule="evenodd" clip-rule="evenodd" fill="#C4290A" d="M246.097,35.941c70.508-3.357,122.274,26.131,158.266,59.348
	c19.17,17.709,34.455,38.058,46.171,62.653c11.641,24.448,20.262,53.677,21.747,86.719c1.635,35.829-5.944,66.693-16.818,91.995
	c-21.5,50.145-57.342,88.365-105.84,111.452c-25.141,11.964-53.676,19.839-87.041,21.425c-35.309,1.684-66.296-5.673-91.994-16.15
	c-26.107-10.625-47.409-25.761-65.949-42.875c-18.974-17.5-34.319-38.023-46.159-62.643c-11.877-24.671-20.508-52.81-22.094-86.384
	c-1.659-35.023,6.057-67.2,16.485-92.329c10.873-26.194,25.104-46.369,42.863-65.613c17.041-18.466,38.405-34.01,62.977-45.837
	C183.084,45.972,211.716,37.576,246.097,35.941z"/>
<path fill-rule="evenodd" clip-rule="evenodd" fill="#FFFFFF" d="M255.659,20.447c62.481,1.213,112.021,24.026,147.07,54.072
	c36.187,31.024,64.374,71.052,76.811,123.65c6.811,28.758,7.976,62.729,3.294,91.337c-4.659,28.609-13.772,53.762-25.39,74.854
	c-23.779,43.248-58.506,75.078-102.868,97.593c-32.597,90.953-65.49,181.586-100.898,269.717
	c-33.056-88.7-65.465-178.095-97.926-267.413c-44.771-22.17-81.195-53.551-105.519-96.936
	c-11.691-20.843-21.736-46.257-26.702-74.518c-5.04-28.598-4.298-63.436,2.304-92.33c12.297-53.874,40.881-93.951,77.157-125.297
	c36.609-31.644,83.313-52.896,147.391-54.728C252.141,20.447,253.898,20.447,255.659,20.447z M158.711,57.7
	c-24.572,11.827-45.937,27.371-62.977,45.837c-17.76,19.245-31.99,39.419-42.863,65.613c-10.428,25.129-18.144,57.306-16.485,92.329
	c1.586,33.575,10.217,61.713,22.094,86.384c11.84,24.62,27.185,45.143,46.159,62.643c18.54,17.114,39.842,32.25,65.949,42.875
	c25.698,10.478,56.685,17.834,91.994,16.15c33.364-1.586,61.9-9.461,87.041-21.425c48.498-23.087,84.34-61.307,105.84-111.452
	c10.874-25.302,18.453-56.166,16.818-91.995c-1.485-33.042-10.106-62.271-21.747-86.719c-11.716-24.595-27.001-44.944-46.171-62.653
	c-35.991-33.217-87.758-62.705-158.266-59.348C211.716,37.576,183.084,45.972,158.711,57.7z"/>
<path fill="#FFFFFF" stroke="#000000" d="M235.003,178.459c-21.818-1.925-45.641-4.492-67.459-6.017c-0.16,1.766-0.16,3.049,0,4.012
	c4.893,3.609,7.14,8.903,6.017,13.877c-1.364,5.936-6.418,9.305-10.989,10.187c-7.62,1.444-15.641-4.331-15.962-12.353
	c-0.161-4.652,1.845-8.983,6.095-11.711c-0.24-3.529-1.202-7.539-0.32-10.989c2.005-8.342,12.594-9.626,18.449-9.786
	c21.256-0.562,43.556-0.24,64.33-0.321"/>
<path fill="#FFFFFF" stroke="#000000" d="M331.259,348.431c8.101,0.962,34.331,2.646,42.513,2.005
	c4.011-17.647,2.647-40.508-6.818-58.796l0,0c-8.903,21.336-25.188,37.941-40.748,48.047"/>
<path fill="#FFFFFF" stroke="#000000" d="M254.093,90.947c-8.101-0.641-12.191-7.86-11.47-13.315
	c0.722-5.534,5.294-10.267,11.149-10.588c8.422-0.481,13.958,5.534,13.717,12.995c-0.081,2.726-1.283,5.454-2.807,7.379
	C261.875,90.786,257.142,91.188,254.093,90.947z M273.024,93.915c1.764-2.006,3.77-5.294,4.572-7.62
	c0.962-2.968,2.807-10.427-2.407-18.128c-6.096-8.984-16.524-13.235-26.069-10.508c-16.524,4.651-21.818,24.464-11.15,36.256
	c1.363,1.524,6.096,4.813,6.096,4.813s-1.042,27.112-1.364,35.454c-0.882,0.081-1.684,0.321-2.406,0.642
	c-6.578,2.968-5.134,8.743-5.294,20.615c-0.081,7.619-0.081,15.24-0.081,23.101c0,3.771-0.481,6.497,1.845,9.226
	c1.204,1.443,2.407,1.523,3.289,2.326c2.888,2.646,1.765,5.614,1.685,8.662c-0.481,11.711-0.08,19.973-0.722,34.652
	c-0.081,2.246-0.883,30.882-1.123,37.219c-0.321,8.262-0.401,86.389-2.567,97.298c-2.086,10.106-9.626,17.326-19.732,15.963
	c-5.455-0.724-11.23-3.209-17.487-6.017c-10.508-4.813-25.427-13.557-35.053-27.354c-0.802-1.202-2.246-2.726-2.647-3.93
	c5.375,0.24,22.861,1.443,28.235,0.883c-3.449-2.166-9.466-8.102-12.513-10.829c-14.438-12.834-30.4-31.122-37.7-41.55
	c-5.294,6.096-6.979,12.353-8.663,19.09c-2.167,8.904-2.487,21.979-0.161,30.963c4.01,0.722,8.422,0.16,12.352,1.043
	c12.354,28.154,36.257,50.614,64.492,62.404c3.449,1.443,6.417,2.407,9.786,3.289c10.749,2.968,28.556,5.694,37.54,17.245
	c2.646-1.604,4.411-4.169,6.898-6.016c12.273-9.225,29.838-11.95,43.636-18.448c16.925-7.94,23.983-16.283,30.079-23.502
	c19.251-22.941,33.048-50.375,30.4-89.277c-6.737,31.845-24.865,55.427-32.967,63.608c-6.418,6.497-13.796,12.272-14.117,12.514
	c-6.658,4.732-10.989,8.423-18.209,11.872c-2.005,0.963-4.171,2.005-5.855,2.566c-8.902,2.808-20.855-0.723-23.421-10.989
	c-0.401-1.604-0.161-3.289-0.241-4.894c-0.401-6.898-0.16-14.117-0.48-21.897c-0.322-9.306-1.604-57.914-1.604-65.614
	c0-6.578,0-14.197-0.321-21.176c-0.161-3.771-0.481-26.391-0.481-26.391c-0.562-10.988-0.401-23.422-0.962-34.01
	c-0.161-3.689-0.482-5.775,1.764-7.379c4.813-3.45,3.449-5.535,3.449-12.354c0,0,0.16-30.722,0-35.774
	c-0.081-3.771-2.327-6.097-5.937-7.38c-0.401-11.15-0.561-23.984-0.32-35.053L273.024,93.915z"/>
<path fill="#FFFFFF" stroke="#000000" d="M265.243,72.498c-7.299-0.4-10.507,2.888-11.39,6.337
	c-3.369,13.797,8.102,19.893,13.154,22.139c4.652,2.085,15.723,3.128,15.723,3.128s11.63,7.861,17.566,14.037
	c10.027,10.509,17.006,22.3,19.652,32.969c0.642,2.646,1.043,5.373,1.043,8.021c0.08,8.262-0.962,9.946-2.086,15.962
	c-5.293,27.514-23.582,49.813-49.731,56.47c-14.358,3.69-33.609,10.589-43.716,15.803c-11.872,6.096-23.583,13.234-26.952,26.39
	c-3.369,13.075,7.059,25.507,22.62,29.037c6.177,1.363,11.791,2.487,18.289,3.209l0.161-10.107
	c-7.862-0.481-18.69-2.647-25.026-7.78c-8.102-6.578-6.739-15.24-0.722-21.097c4.331-4.171,14.037-8.663,21.176-12.353
	c18.128-9.385,46.042-12.272,61.683-23.102c12.835-8.903,22.941-20.935,28.556-35.453c2.407-6.178,4.653-14.52,5.774-21.497
	c0.803-5.054,1.285-8.583,0.883-14.68c-0.24-3.288-0.48-6.897-1.122-10.187c-4.171-20.455-19.091-36.818-35.614-49.972
	c-1.124-0.883-2.888-2.006-3.771-3.048c-1.363-1.685-1.443-5.294-1.926-6.898c-1.765-5.775-6.255-13.154-11.148-14.839
	c0,0,0.401,8.983-0.802,11.15c1.604,1.523,4.09,5.855,3.528,8.182c-2.726,1.764-14.919-3.208-16.764-6.498
	c-2.246-3.93-1.044-8.102,3.127-8.021C267.891,75.868,265.243,72.498,265.243,72.498z"/>
<path fill="#FFFFFF" stroke="#000000" d="M271.179,313.618c24.305,7.459,46.846,25.828,50.936,51.656
	c0.802,4.893,0.882,7.7,1.043,10.188c0.722,13.956-4.412,24.706-14.438,35.133c-8.503,8.823-21.657,17.968-32.326,21.979
	c-5.293,2.005-12.033,3.207-16.042,3.609c-14.759,1.362-30.481-5.697-43.797-13.396c-6.898-4.011-16.122-10.349-24.144-16.204
	c-7.781-5.694-15.16-12.192-22.78-17.246c-6.578-4.331-13.235-8.422-19.492-11.39c-4.171-1.925-9.786-4.492-13.235-5.053
	c-0.802,3.047-1.925,6.656-1.203,9.705c16.925,5.295,30.161,16.925,43.956,27.191c19.252,14.278,38.422,28.958,62.406,35.294
	c11.631,3.048,21.096,2.085,28.957,0.402c19.732-4.411,42.995-19.813,55.187-38.743c5.375-8.343,7.06-15.321,8.743-22.86
	c1.363-6.418,0.563-16.765-0.963-23.103c-1.845-7.619-4.572-16.283-10.828-24.144c-6.096-7.7-12.514-14.277-20.215-19.894
	c-7.299-5.373-15.56-9.785-24.945-12.672c-2.085-0.643-4.332-1.365-6.979-1.605"/>
<path fill="#FFFFFF" stroke="#000000" d="M330.777,174.688c2.807,0,12.513,0.563,16.604-1.523c3.048-1.524,4.972-4.893,5.774-7.781
	c0.321-1.203,0.641-4.812,0.641-4.812s4.173-2.968,5.455-5.374c5.535-10.348-4.17-20.375-13.797-19.172
	c-7.379,0.883-12.753,7.781-11.79,14.6c0.642,4.331,3.851,7.94,6.418,9.385c-2.248,0.08-5.375,0.08-8.184,0.08
	c-3.528,0-13.717-0.883-15.802-1.043c-13.073-1.123-38.982-3.048-43.234-3.369c-4.411-0.321-16.363-2.326-21.978-0.08
	c-7.46,3.049-9.465,12.031-4.733,18.048c4.813,6.016,11.712,4.412,18.771,4.171c2.646-0.08,6.096-0.24,8.341-0.401
	c9.225-0.561,24.707-1.282,35.053-1.845C312.409,175.331,326.687,174.769,330.777,174.688z"/>
</svg>
