<?xml version="1.0" encoding="utf-8"?>
<!-- Generator: Adobe Illustrator 12.0.0, SVG Export Plug-In  -->
<!DOCTYPE svg PUBLIC "-//W3C//DTD SVG 1.1//EN" "http://www.w3.org/Graphics/SVG/1.1/DTD/svg11.dtd" [
	<!ENTITY ns_flows "http://ns.adobe.com/Flows/1.0/">
	<!ENTITY ns_svg "http://www.w3.org/2000/svg">
	<!ENTITY ns_xlink "http://www.w3.org/1999/xlink">
]>
<svg  version="1.1" xmlns="&ns_svg;" xmlns:xlink="&ns_xlink;" xmlns:a="http://ns.adobe.com/AdobeSVGViewerExtensions/3.0/"
	 width="506" height="789" viewBox="0 -0.933 506 789" enable-background="new 0 -0.933 506 789" xml:space="preserve">
<defs>
</defs>
<path fill-rule="evenodd" clip-rule="evenodd" d="M244.451,0c5.708,0,11.431,0,17.14,0c33.092,1.609,62.938,8.422,88.7,19.122
	c24.817,10.304,47.136,24.287,66.283,40.56c38.442,32.709,68.563,76.179,82.087,131.886c7.28,29.935,9.46,65.85,4.951,96.615
	c-4.556,31.196-14.092,57.501-26.056,81.119c-23.952,47.297-61.032,81.827-106.831,107.166
	c-37.601,105.718-76.092,210.542-118.362,311.601c-37.575-103.339-75.497-206.328-113.098-309.619
	c-23.94-12.087-45.018-27.222-63.31-45.501C40.04,397.031,12.198,352.78,2.749,290.819c-4.805-31.531-3.269-67.162,4.285-97.591
	c14.082-56.723,42.951-99.871,82.111-133.211C128.108,26.825,177.436,3.789,244.451,0z M250.383,20.447
	c-64.078,1.832-110.782,23.084-147.391,54.728c-36.276,31.346-64.86,71.423-77.157,125.297c-6.602,28.894-7.344,63.732-2.304,92.33
	c4.966,28.261,15.011,53.675,26.702,74.518c24.324,43.385,60.747,74.766,105.519,96.936
	c32.461,89.318,64.871,178.713,97.926,267.413c35.408-88.131,68.302-178.764,100.898-269.717
	c44.362-22.515,79.089-54.345,102.868-97.593c11.617-21.091,20.73-46.244,25.39-74.854c4.682-28.608,3.517-62.579-3.294-91.337
	c-12.437-52.598-40.624-92.625-76.811-123.65C367.68,44.473,318.14,21.66,255.659,20.447
	C254.656,19.89,251.386,19.89,250.383,20.447z"/>
<path fill-rule="evenodd" clip-rule="evenodd" fill="#0060FF" d="M250.383,20.447c1.003-0.558,4.273-0.558,5.276,0
	C253.898,20.447,252.141,20.447,250.383,20.447z"/>
<path fill-rule="evenodd" clip-rule="evenodd" fill="#E00505" d="M246.097,35.941c70.508-3.357,122.274,26.131,158.266,59.348
	c19.17,17.709,34.455,38.058,46.171,62.653c11.641,24.448,20.262,53.677,21.747,86.719c1.635,35.829-5.944,66.693-16.818,91.995
	c-21.5,50.145-57.342,88.365-105.84,111.452c-25.141,11.964-53.676,19.839-87.041,21.425c-35.309,1.684-66.296-5.673-91.994-16.15
	c-26.107-10.625-47.409-25.761-65.949-42.875c-18.974-17.5-34.319-38.023-46.159-62.643c-11.877-24.671-20.508-52.81-22.094-86.384
	c-1.659-35.023,6.057-67.2,16.485-92.329c10.873-26.194,25.104-46.369,42.863-65.613c17.041-18.466,38.405-34.01,62.977-45.837
	C183.084,45.972,211.716,37.576,246.097,35.941z"/>
<path fill-rule="evenodd" clip-rule="evenodd" fill="#FFFFFF" d="M255.659,20.447c62.481,1.213,112.021,24.026,147.07,54.072
	c36.187,31.024,64.374,71.052,76.811,123.65c6.811,28.758,7.976,62.729,3.294,91.337c-4.659,28.609-13.772,53.762-25.39,74.854
	c-23.779,43.248-58.506,75.078-102.868,97.593c-32.597,90.953-65.49,181.586-100.898,269.717
	c-33.056-88.7-65.465-178.095-97.926-267.413c-44.771-22.17-81.195-53.551-105.519-96.936
	c-11.691-20.843-21.736-46.257-26.702-74.518c-5.04-28.598-4.298-63.436,2.304-92.33c12.297-53.874,40.881-93.951,77.157-125.297
	c36.609-31.644,83.313-52.896,147.391-54.728C252.141,20.447,253.898,20.447,255.659,20.447z M158.711,57.7
	c-24.572,11.827-45.937,27.371-62.977,45.837c-17.76,19.245-31.99,39.419-42.863,65.613c-10.428,25.129-18.144,57.306-16.485,92.329
	c1.586,33.575,10.217,61.713,22.094,86.384c11.84,24.62,27.185,45.143,46.159,62.643c18.54,17.114,39.842,32.25,65.949,42.875
	c25.698,10.478,56.685,17.834,91.994,16.15c33.364-1.586,61.9-9.461,87.041-21.425c48.498-23.087,84.34-61.307,105.84-111.452
	c10.874-25.302,18.453-56.166,16.818-91.995c-1.485-33.042-10.106-62.271-21.747-86.719c-11.716-24.595-27.001-44.944-46.171-62.653
	c-35.991-33.217-87.758-62.705-158.266-59.348C211.716,37.576,183.084,45.972,158.711,57.7z"/>
<path fill="#FFFFFF" d="M251.922,53.938c-3.102,0.456-5.838,2.373-7.298,4.926L81.521,341.65c-1.733,3.102-1.733,7.116,0,10.218
	c1.916,3.101,5.2,5.199,8.849,5.199h326.481c3.649,0,7.023-2.099,8.849-5.199c1.734-3.102,1.734-7.116,0-10.218L262.322,58.955
	C260.132,55.397,256.119,53.299,251.922,53.938L251.922,53.938z M253.564,86.503L392.13,330.613H114.725L253.564,86.503
	L253.564,86.503z"/>
<path fill="#FFFFFF" d="M264.329,300.692c0,8.028-6.478,14.595-14.596,14.595c-8.027,0-14.595-6.477-14.595-14.595
	c0-8.027,6.477-14.596,14.595-14.596S264.329,292.574,264.329,300.692L264.329,300.692z M244.26,165.501h11.403
	c5.837,0,10.491,7.116,10.491,15.873l-4.927,72.887c0,8.849-4.652,15.872-10.491,15.872h-1.642c-5.838,0-10.491-7.116-10.491-15.872
	l-4.835-72.887C233.678,172.617,238.422,165.41,244.26,165.501L244.26,165.501z"/>
</svg>
