<?xml version="1.0" encoding="utf-8"?>
<!-- Generator: Adobe Illustrator 12.0.0, SVG Export Plug-In  -->
<!DOCTYPE svg PUBLIC "-//W3C//DTD SVG 1.1//EN" "http://www.w3.org/Graphics/SVG/1.1/DTD/svg11.dtd" [
	<!ENTITY ns_flows "http://ns.adobe.com/Flows/1.0/">
	<!ENTITY ns_svg "http://www.w3.org/2000/svg">
	<!ENTITY ns_xlink "http://www.w3.org/1999/xlink">
]>
<svg  version="1.1" xmlns="&ns_svg;" xmlns:xlink="&ns_xlink;" xmlns:a="http://ns.adobe.com/AdobeSVGViewerExtensions/3.0/"
	 width="506" height="789" viewBox="0 -0.933 506 789" enable-background="new 0 -0.933 506 789" xml:space="preserve">
<defs>
</defs>
<path fill-rule="evenodd" clip-rule="evenodd" d="M244.451,0c5.708,0,11.431,0,17.14,0c33.092,1.609,62.938,8.422,88.7,19.122
	c24.817,10.304,47.136,24.287,66.283,40.56c38.442,32.709,68.563,76.179,82.087,131.886c7.28,29.935,9.46,65.85,4.951,96.615
	c-4.556,31.196-14.092,57.501-26.056,81.119c-23.952,47.297-61.032,81.827-106.831,107.166
	c-37.601,105.718-76.092,210.542-118.362,311.601c-37.575-103.339-75.497-206.328-113.098-309.619
	c-23.94-12.087-45.018-27.222-63.31-45.501C40.04,397.031,12.198,352.78,2.749,290.819c-4.805-31.531-3.269-67.162,4.285-97.591
	c14.082-56.723,42.951-99.871,82.111-133.211C128.108,26.825,177.436,3.789,244.451,0z M250.383,20.447
	c-64.078,1.832-110.782,23.084-147.391,54.728c-36.276,31.346-64.86,71.423-77.157,125.297c-6.602,28.894-7.344,63.732-2.304,92.33
	c4.966,28.261,15.011,53.675,26.702,74.518c24.324,43.385,60.747,74.766,105.519,96.936
	c32.461,89.318,64.871,178.713,97.926,267.413c35.408-88.131,68.302-178.764,100.898-269.717
	c44.362-22.515,79.089-54.345,102.868-97.593c11.617-21.091,20.73-46.244,25.39-74.854c4.682-28.608,3.517-62.579-3.294-91.337
	c-12.437-52.598-40.624-92.625-76.811-123.65C367.68,44.473,318.14,21.66,255.659,20.447
	C254.656,19.89,251.386,19.89,250.383,20.447z"/>
<path fill-rule="evenodd" clip-rule="evenodd" fill="#0060FF" d="M250.383,20.447c1.003-0.558,4.273-0.558,5.276,0
	C253.898,20.447,252.141,20.447,250.383,20.447z"/>
<path fill-rule="evenodd" clip-rule="evenodd" fill="#FFCB05" d="M246.097,35.941c70.508-3.357,122.274,26.131,158.266,59.348
	c19.17,17.709,34.455,38.058,46.171,62.653c11.641,24.448,20.262,53.677,21.747,86.719c1.635,35.829-5.944,66.693-16.818,91.995
	c-21.5,50.145-57.342,88.365-105.84,111.452c-25.141,11.964-53.676,19.839-87.041,21.425c-35.309,1.684-66.296-5.673-91.994-16.15
	c-26.107-10.625-47.409-25.761-65.949-42.875c-18.974-17.5-34.319-38.023-46.159-62.643c-11.877-24.671-20.508-52.81-22.094-86.384
	c-1.659-35.023,6.057-67.2,16.485-92.329c10.873-26.194,25.104-46.369,42.863-65.613c17.041-18.466,38.405-34.01,62.977-45.837
	C183.084,45.972,211.716,37.576,246.097,35.941z"/>
<path fill-rule="evenodd" clip-rule="evenodd" fill="#FFFFFF" d="M255.659,20.447c62.481,1.213,112.021,24.026,147.07,54.072
	c36.187,31.024,64.374,71.052,76.811,123.65c6.811,28.758,7.976,62.729,3.294,91.337c-4.659,28.609-13.772,53.762-25.39,74.854
	c-23.779,43.248-58.506,75.078-102.868,97.593c-32.597,90.953-65.49,181.586-100.898,269.717
	c-33.056-88.7-65.465-178.095-97.926-267.413c-44.771-22.17-81.195-53.551-105.519-96.936
	c-11.691-20.843-21.736-46.257-26.702-74.518c-5.04-28.598-4.298-63.436,2.304-92.33c12.297-53.874,40.881-93.951,77.157-125.297
	c36.609-31.644,83.313-52.896,147.391-54.728C252.141,20.447,253.898,20.447,255.659,20.447z M158.711,57.7
	c-24.572,11.827-45.937,27.371-62.977,45.837c-17.76,19.245-31.99,39.419-42.863,65.613c-10.428,25.129-18.144,57.306-16.485,92.329
	c1.586,33.575,10.217,61.713,22.094,86.384c11.84,24.62,27.185,45.143,46.159,62.643c18.54,17.114,39.842,32.25,65.949,42.875
	c25.698,10.478,56.685,17.834,91.994,16.15c33.364-1.586,61.9-9.461,87.041-21.425c48.498-23.087,84.34-61.307,105.84-111.452
	c10.874-25.302,18.453-56.166,16.818-91.995c-1.485-33.042-10.106-62.271-21.747-86.719c-11.716-24.595-27.001-44.944-46.171-62.653
	c-35.991-33.217-87.758-62.705-158.266-59.348C211.716,37.576,183.084,45.972,158.711,57.7z"/>
<path d="M251.222,78.067c14.399,42,27.899,84.8,42,127c44.5,0,89.1,0,133.6,0c0.799,0.5-1.301,1.9-2.201,2.5
	c-34.299,24.5-70.299,49.5-104.1,74.7c13.4,43.1,26.6,86.3,40.201,129.2c-2.201,0.301-4.4-2.5-6.602-4.1
	c-33.799-24.5-69.299-49.5-102.899-74.3c-36.4,25.2-72.601,52.2-108.5,76.899c13.7-42,27.1-84.399,41.1-126.1
	c-36.1-26.8-74.8-52.6-110.4-78.7c45.1,0,90.1,0,135.2,0C223.222,163.167,237.222,120.567,251.222,78.067z M218.522,220.167
	c-34,0-68,0-102,0c26.7,19.6,55.9,39.4,83.4,59.3c-10.601,31.7-20.801,63.7-31.101,95.7c27.601-19.2,54.4-39.1,81.9-58.3
	c23.899,17.4,48.6,35.6,72.5,52.7c3.398,2.399,6.799,5.2,10.699,6.899c-10.5-32.3-20.5-65.2-30.699-97.899
	c24.898-18.2,51.199-37.1,76.199-54.9c1.699-1.2,4.4-2.1,4.1-3.5c-33.6,0-67.1,0-100.7,0c-10.399-31.9-21.2-63.5-31.399-95.7
	c-0.4,0-0.5-0.5-0.601,0C240.122,156.367,229.922,188.867,218.522,220.167z"/>
<path fill="#FFFFFF" d="M250.822,124.467c0.101-0.5,0.3,0,0.601,0c10.199,32.1,20.899,63.8,31.399,95.7c33.6,0,67.1,0,100.7,0
	c0.301,1.4-2.4,2.2-4.1,3.5c-25,17.8-51.301,36.7-76.199,54.9c10.199,32.6,20.199,65.5,30.699,97.899
	c-3.801-1.699-7.301-4.5-10.699-6.899c-23.801-17.101-48.5-35.3-72.5-52.7c-27.5,19.3-54.3,39.2-81.9,58.3
	c10.3-32,20.5-64,31.101-95.7c-27.5-19.9-56.7-39.7-83.4-59.3c34,0,68,0,102,0C229.922,188.867,240.122,156.367,250.822,124.467z"/>
</svg>
