<?xml version="1.0" encoding="utf-8"?>
<!-- Generator: Adobe Illustrator 12.0.0, SVG Export Plug-In  -->
<!DOCTYPE svg PUBLIC "-//W3C//DTD SVG 1.1//EN" "http://www.w3.org/Graphics/SVG/1.1/DTD/svg11.dtd" [
	<!ENTITY ns_flows "http://ns.adobe.com/Flows/1.0/">
	<!ENTITY ns_svg "http://www.w3.org/2000/svg">
	<!ENTITY ns_xlink "http://www.w3.org/1999/xlink">
]>
<svg  version="1.1" xmlns="&ns_svg;" xmlns:xlink="&ns_xlink;" xmlns:a="http://ns.adobe.com/AdobeSVGViewerExtensions/3.0/"
	 width="615" height="879" viewBox="-1.1 -51.8 615 879" enable-background="new -1.1 -51.8 615 879" xml:space="preserve">
<defs>
</defs>
<ellipse fill="#F2C900" stroke="#000000" stroke-width="0.5117" cx="283.5" cy="571.9" rx="166.5" ry="193.5"/>
<g id="path2244_3_">
	<path fill="#E52600" d="M257.7,0c-78.3,81,13.5,201.2-25.6,210.7c0,0-48.6-77-103.9-68.9c86.2,115.1,36.2,187.2,36.4,186.4
		c-54-67.5-123.4-69-107.9-58.1c64.8,45.5,44.5,167.5,44.5,167.5S32.4,378.2,0,409.3c88,44.7,49.9,95.9,48.6,158
		c-3,123.4,74.3,178.7,88.2,187.7h-37v28.4h349.5V755h-43.2c27.8-12,133.5-66.1,141.7-198.5c0,0,2.7-77.1-22.9-108.1
		c-6.7,28.4-24.3,31.1-24.3,31.1c-10.8,1.3,14.9-63.7,14.9-91.8c0-64.8-45.9-89.2-45.9-89.2s10.8,71.6-29.7,94.5
		c-8.1-16.8,23.4-201.1-91.8-237.7c29.7,60.8,22.9,83.7,22.9,83.7s-2.9,30.8-4,23c-8.8-59.8-62.1-117.5-62.1-117.5
		S275.4,118.9,257.7,0L257.7,0z M337.3,447.1c16.2,23,0,137.8,0,137.8c27-8.1,59-61.1,66.1-68.9c8.9-9.8,4,66.2-28.3,98.6
		c34.9-8,52.6-36.5,52.6-36.5s-12.8,126.5-161.9,166.1c-27,16.2-169.3-72.4-91.8-209.3c25.6,120.2,70.2,120.2,70.2,120.2
		s-33.7-108-4-140.5c0,0,15.9,57.5,47.2,62.1C306.3,484.9,337.3,447.1,337.3,447.1L337.3,447.1z"/>
</g>
</svg>
